<?xml version="1.0" encoding="UTF-8"?>
<svg xmlns="http://www.w3.org/2000/svg" xmlns:xlink="http://www.w3.org/1999/xlink" width="3600" height="3600" viewBox="0 0 3600 3600">

<path fill-rule="evenodd" fill="rgb(44.700623%, 39.598083%, 99.21875%)" fill-opacity="1" d="M 2090.449219 1201.121094 L 2090.449219 1919.738281 L 2063.738281 1935.160156 C 2054.320312 1940.601562 2048.921875 1949.949219 2048.921875 1960.828125 L 2048.921875 2070.351562 C 2048.921875 2081.238281 2054.320312 2090.578125 2063.738281 2096.019531 L 2111.171875 2123.410156 L 2158.601562 2150.800781 C 2168.03125 2156.238281 2178.820312 2156.238281 2188.238281 2150.800781 L 2235.671875 2123.410156 L 2283.101562 2096.019531 C 2292.53125 2090.578125 2297.921875 2081.238281 2297.921875 2070.351562 L 2297.921875 1960.828125 C 2297.921875 1949.949219 2292.53125 1940.601562 2283.101562 1935.160156 L 2256.398438 1919.738281 L 2256.398438 1105.308594 L 2173.421875 1057.398438 L 1800 841.800781 L 1426.570312 1057.410156 L 1343.601562 1105.308594 L 1343.601562 1296.929688 L 1343.589844 1488.570312 L 1364.320312 1476.601562 L 1426.570312 1440.660156 L 1509.550781 1392.738281 L 1509.550781 1201.121094 L 1592.511719 1153.21875 L 1800 1033.421875 L 2007.480469 1153.210938 Z M 2179.648438 1958.761719 L 2199.589844 1970.269531 L 2219.53125 1981.78125 C 2223.5 1984.070312 2225.761719 1987.988281 2225.761719 1992.570312 L 2225.761719 2038.609375 C 2225.761719 2043.191406 2223.5 2047.121094 2219.53125 2049.398438 L 2199.589844 2060.921875 L 2179.648438 2072.429688 C 2175.691406 2074.71875 2171.148438 2074.71875 2167.191406 2072.429688 L 2147.25 2060.921875 L 2127.320312 2049.398438 C 2123.351562 2047.121094 2121.089844 2043.191406 2121.089844 2038.609375 L 2121.089844 1992.570312 C 2121.089844 1987.988281 2123.351562 1984.070312 2127.320312 1981.78125 L 2147.25 1970.269531 L 2167.191406 1958.761719 C 2171.148438 1956.46875 2175.691406 1956.46875 2179.648438 1958.761719 "/>
<path fill-rule="evenodd" fill="rgb(62.304688%, 59.568787%, 98.826599%)" fill-opacity="1" d="M 2463.871094 1943.699219 L 2463.878906 2183.289062 L 2256.398438 2303.078125 L 2173.441406 2350.96875 L 1551.070312 1991.648438 L 1551.070312 1960.828125 C 1551.070312 1949.949219 1545.679688 1940.601562 1536.25 1935.160156 L 1488.820312 1907.769531 L 1441.390625 1880.390625 C 1431.96875 1874.949219 1421.179688 1874.949219 1411.75 1880.390625 L 1364.320312 1907.769531 L 1316.890625 1935.160156 C 1307.46875 1940.601562 1302.070312 1949.949219 1302.070312 1960.828125 L 1302.070312 2070.351562 C 1302.070312 2081.238281 1307.46875 2090.578125 1316.890625 2096.019531 L 1411.75 2150.800781 C 1421.179688 2156.238281 1431.96875 2156.238281 1441.390625 2150.800781 L 1468.078125 2135.378906 L 2090.449219 2494.699219 L 2173.421875 2542.609375 L 2256.398438 2494.699219 L 2629.828125 2279.109375 L 2629.820312 1847.898438 L 2629.820312 1752.101562 L 2463.871094 1656.28125 L 2297.910156 1560.460938 L 2297.910156 1584.398438 L 2297.921875 1656.269531 L 2297.921875 1752.101562 L 2380.890625 1800 L 2463.871094 1847.910156 Z M 1432.800781 1958.761719 L 1452.738281 1970.269531 L 1472.679688 1981.78125 C 1476.640625 1984.070312 1478.910156 1987.988281 1478.910156 1992.570312 L 1478.910156 2038.609375 C 1478.910156 2043.191406 1476.640625 2047.121094 1472.679688 2049.398438 L 1452.738281 2060.921875 L 1432.800781 2072.429688 C 1428.839844 2074.71875 1424.300781 2074.71875 1420.339844 2072.429688 L 1400.398438 2060.921875 L 1380.460938 2049.398438 C 1376.5 2047.121094 1374.230469 2043.191406 1374.230469 2038.609375 L 1374.230469 1992.570312 C 1374.230469 1987.988281 1376.5 1984.070312 1380.460938 1981.78125 L 1400.398438 1970.269531 L 1420.339844 1958.761719 C 1424.300781 1956.46875 1428.839844 1956.46875 1432.800781 1958.761719 "/>
<path fill-rule="evenodd" fill="rgb(39.988708%, 23.925781%, 100%)" fill-opacity="1" d="M 1136.128906 1847.898438 L 1758.480469 1488.589844 L 1785.179688 1504.011719 C 1794.609375 1509.449219 1805.390625 1509.449219 1814.820312 1504.011719 L 1909.679688 1449.230469 C 1919.101562 1443.789062 1924.5 1434.449219 1924.5 1423.570312 L 1924.5 1314.039062 C 1924.5 1303.160156 1919.101562 1293.820312 1909.679688 1288.371094 L 1862.25 1260.988281 L 1814.820312 1233.601562 C 1805.390625 1228.160156 1794.609375 1228.160156 1785.179688 1233.601562 L 1737.75 1260.988281 L 1690.320312 1288.371094 C 1680.898438 1293.820312 1675.5 1303.160156 1675.5 1314.039062 L 1675.5 1344.859375 L 1053.148438 1704.171875 L 970.175781 1752.070312 L 970.175781 1847.890625 L 970.171875 2279.078125 L 1343.601562 2494.679688 L 1426.578125 2542.578125 L 1592.53125 2446.769531 L 1758.488281 2350.960938 L 1737.761719 2338.988281 L 1675.511719 2303.050781 L 1592.53125 2255.140625 L 1509.558594 2303.050781 L 1426.578125 2350.960938 L 1343.621094 2303.058594 L 1136.121094 2183.269531 L 1136.128906 1943.691406 Z M 1747.660156 1368.800781 L 1747.660156 1345.789062 C 1747.660156 1341.199219 1749.929688 1337.28125 1753.890625 1334.988281 L 1773.828125 1323.480469 L 1793.769531 1311.96875 C 1797.730469 1309.679688 1802.269531 1309.679688 1806.230469 1311.96875 L 1826.171875 1323.480469 L 1846.109375 1334.988281 C 1850.070312 1337.28125 1852.339844 1341.199219 1852.339844 1345.789062 L 1852.339844 1391.820312 C 1852.339844 1396.398438 1850.070312 1400.328125 1846.109375 1402.621094 L 1826.171875 1414.128906 L 1806.230469 1425.640625 C 1802.269531 1427.929688 1797.730469 1427.929688 1793.769531 1425.640625 L 1773.828125 1414.128906 L 1753.890625 1402.621094 C 1749.929688 1400.328125 1747.660156 1396.398438 1747.660156 1391.820312 L 1747.660156 1368.800781 "/>
<path fill-rule="evenodd" fill="rgb(44.700623%, 39.598083%, 99.21875%)" fill-opacity="1" d="M 2297.921875 1129.28125 L 2297.921875 1320.910156 L 2463.871094 1416.71875 L 2463.871094 1608.371094 L 2629.820312 1704.179688 L 2629.820312 1320.910156 L 2297.921875 1129.28125 "/>
<path fill-rule="evenodd" fill="rgb(62.304688%, 59.568787%, 98.826599%)" fill-opacity="1" d="M 1965.988281 2470.75 L 1800 2566.578125 L 1634.011719 2470.738281 L 1468.070312 2566.558594 L 1800 2758.203125 L 1882.980469 2710.296875 L 2131.929688 2566.558594 L 1965.988281 2470.75 "/>
<path fill-rule="evenodd" fill="rgb(39.988708%, 23.925781%, 100%)" fill-opacity="1" d="M 1302.078125 1320.910156 L 1302.078125 1129.28125 L 970.171875 1320.921875 L 970.171875 1704.179688 L 1136.121094 1608.371094 L 1136.121094 1416.730469 L 1302.078125 1320.910156 "/>
<path fill-rule="evenodd" fill="rgb(34.521484%, 11.767578%, 100%)" fill-opacity="1" d="M 1799.988281 1596.199219 L 1976.488281 1698.109375 L 1976.488281 1901.890625 L 1800 2003.800781 L 1623.5 1901.890625 L 1623.5 1698.109375 L 1799.988281 1596.199219 "/>
<path fill-rule="evenodd" fill="rgb(39.988708%, 23.925781%, 100%)" fill-opacity="1" d="M 1799.988281 1800 L 1623.5 1901.890625 L 1800 2003.800781 L 1976.488281 1901.890625 L 1799.988281 1800 "/>
<path fill-rule="evenodd" fill="rgb(44.700623%, 39.598083%, 99.21875%)" fill-opacity="1" d="M 1623.5 1698.109375 L 1623.5 1901.898438 L 1799.988281 1800 L 1799.988281 1596.199219 L 1623.5 1698.109375 "/>
</svg>
